HIERARCHY
ROOT Hips
{
	OFFSET 0.000000 0.000000 0.000000
	CHANNELS 6 Xposition Yposition Zposition Xrotation Yrotation Zrotation
	JOINT LeftUpLeg_virtual
	{
		OFFSET 0.000000 0.000000 0.000000
		CHANNELS 3 Xrotation Yrotation Zrotation
		JOINT LeftUpLeg
		{
			OFFSET 15.427100 -6.655098 0.678600
			CHANNELS 3 Xrotation Yrotation Zrotation
			JOINT LeftLeg
			{
				OFFSET 4.081073 -39.591068 13.024000
				CHANNELS 3 Xrotation Yrotation Zrotation
				JOINT LeftFoot
				{
					OFFSET -4.081074 -37.707932 -15.979700
					CHANNELS 3 Xrotation Yrotation Zrotation
					JOINT LeftToeBase
					{
						OFFSET 5.346399 -15.068900 20.645000
						CHANNELS 3 Xrotation Yrotation Zrotation
						JOINT LeftToe_End
						{
							OFFSET 2.754700 0.931300 11.300900
							CHANNELS 3 Xrotation Yrotation Zrotation
							End Site
							{
								OFFSET 0 0 0
							}
						}
					}
				}
			}
		}
	}
	JOINT RightUpLeg_virtual
	{
		OFFSET 0.000000 0.000000 0.000000
		CHANNELS 3 Xrotation Yrotation Zrotation
		JOINT RightUpLeg
		{
			OFFSET -15.569500 -6.655098 0.678600
			CHANNELS 3 Xrotation Yrotation Zrotation
			JOINT RightLeg
			{
				OFFSET -4.081825 -39.591045 13.023800
				CHANNELS 3 Xrotation Yrotation Zrotation
				JOINT RightFoot
				{
					OFFSET 4.081824 -37.707954 -15.979600
					CHANNELS 3 Xrotation Yrotation Zrotation
					JOINT RightToeBase
					{
						OFFSET -5.346400 -15.068900 20.645000
						CHANNELS 3 Xrotation Yrotation Zrotation
						JOINT RightToe_End
						{
							OFFSET -2.754700 0.931300 11.300900
							CHANNELS 3 Xrotation Yrotation Zrotation
							End Site
							{
								OFFSET 0 0 0
							}
						}
					}
				}
			}
		}
	}
	JOINT Spine_virtual
	{
		OFFSET 0.000000 0.000000 0.000000
		CHANNELS 3 Xrotation Yrotation Zrotation
		JOINT Spine
		{
			OFFSET -0.279200 12.230698 -2.892100
			CHANNELS 3 Xrotation Yrotation Zrotation
			JOINT Spine1
			{
				OFFSET -0.232667 10.192268 -1.242267
				CHANNELS 3 Xrotation Yrotation Zrotation
				JOINT Spine1_split
				{
					OFFSET -0.232667 10.192268 -1.242267
					CHANNELS 3 Xrotation Yrotation Zrotation
					JOINT Spine2
					{
						OFFSET -0.232667 10.192268 -1.242267
						CHANNELS 3 Xrotation Yrotation Zrotation
						JOINT Neck_virtual
						{
							OFFSET 0.000000 0.000000 0.000000
							CHANNELS 3 Xrotation Yrotation Zrotation
							JOINT Neck
							{
								OFFSET -0.418800 17.814194 8.416900
								CHANNELS 3 Xrotation Yrotation Zrotation
								JOINT Head
								{
									OFFSET 0.000000 7.031097 3.806800
									CHANNELS 3 Xrotation Yrotation Zrotation
									JOINT HeadTop_End
									{
										OFFSET 0.000000 24.646606 12.978600
										CHANNELS 3 Xrotation Yrotation Zrotation
										End Site
										{
											OFFSET 0 0 0
										}
									}
								}
							}
						}
						JOINT LeftShoulder_virtual
						{
							OFFSET 0.000000 0.000000 0.000000
							CHANNELS 3 Xrotation Yrotation Zrotation
							JOINT LeftShoulder
							{
								OFFSET 8.476499 7.247704 -3.868750
								CHANNELS 3 Xrotation Yrotation Zrotation
								JOINT LeftShoulder_split
								{
									OFFSET 8.476499 7.247704 -3.868750
									CHANNELS 3 Xrotation Yrotation Zrotation
									JOINT LeftArm
									{
										OFFSET 9.308998 -2.777710 0.208600
										CHANNELS 3 Xrotation Yrotation Zrotation
										JOINT LeftForeArm
										{
											OFFSET 29.972298 0.000000 0.000000
											CHANNELS 3 Xrotation Yrotation Zrotation
											JOINT LeftHand
											{
												OFFSET 26.026505 0.000000 0.000000
												CHANNELS 3 Xrotation Yrotation Zrotation
												End Site
												{
													OFFSET 0 0 0
												}
											}
										}
									}
								}
							}
						}
						JOINT RightShoulder_virtual
						{
							OFFSET 0.000000 0.000000 0.000000
							CHANNELS 3 Xrotation Yrotation Zrotation
							JOINT RightShoulder
							{
								OFFSET -7.570500 7.247704 -3.868750
								CHANNELS 3 Xrotation Yrotation Zrotation
								JOINT RightShoulder_split
								{
									OFFSET -7.570500 7.247704 -3.868750
									CHANNELS 3 Xrotation Yrotation Zrotation
									JOINT RightArm
									{
										OFFSET -9.308998 -2.777710 0.208500
										CHANNELS 3 Xrotation Yrotation Zrotation
										JOINT RightForeArm
										{
											OFFSET -29.972300 0.000000 0.000000
											CHANNELS 3 Xrotation Yrotation Zrotation
											JOINT RightHand
											{
												OFFSET -26.026505 0.000000 0.000000
												CHANNELS 3 Xrotation Yrotation Zrotation
												End Site
												{
													OFFSET 0 0 0
												}
											}
										}
									}
								}
							}
						}
					}
				}
			}
		}
	}
}
MOTION
Frames: 5
Frame Time: 0.03333333
-1.657808 12.804535 9.556702 0.000000 0.000000 0.000000 -87.567410 -3.801700 -1.783089 -22.265336 15.095073 -8.112152 21.621674 -5.019747 -8.843311 2.267046 7.413430 8.230137 -0.279195 0.000000 -0.000003 0.000000 0.000000 0.000000 -87.567410 -3.801700 -1.783089 -5.625648 -10.446891 1.418583 5.720816 -6.510687 7.317511 9.679976 -5.199041 26.025768 -1.652949 -0.000013 -0.000003 0.000000 0.000000 0.000000 -87.567410 -3.801700 -1.783089 0.600609 1.775327 -0.295711 -2.712469 0.550123 0.069934 0.000000 0.000000 0.000000 0.000000 0.000000 0.000000 -2.709987 0.572754 0.085569 3.954682 -0.162521 0.200793 7.663472 -2.706721 7.904900 0.000000 0.000000 0.000000 -2.709987 0.572754 0.085569 1.279307 -13.498954 -1.883383 0.000000 0.000000 0.000000 20.483961 -1.014536 -70.993478 -179.999991 -42.508509 -179.999978 0.000000 0.000000 0.000000 -2.709987 0.572754 0.085569 0.515808 6.973517 0.064737 0.000000 0.000000 0.000000 15.875315 6.901690 66.846488 180.000005 46.911969 179.999991 0.000000 0.000000 0.000000 
-1.657518 12.802513 9.559303 0.000000 0.000000 0.000000 -87.572055 -3.801847 -1.786637 -22.265454 15.093955 -8.107428 21.625171 -5.020959 -8.844823 2.277369 7.406415 8.214018 -0.292806 -0.000001 0.000008 0.000000 0.000000 0.000000 -87.572055 -3.801847 -1.786637 -5.625027 -10.450672 1.418893 5.729111 -6.521668 7.314256 9.681682 -5.207590 26.020646 -1.646727 -0.000002 -0.000005 0.000000 0.000000 0.000000 -87.572055 -3.801847 -1.786637 0.609566 1.790888 -0.285489 -2.714827 0.553227 0.066521 0.000000 0.000000 0.000000 0.000000 0.000000 0.000000 -2.712320 0.575769 0.082299 3.958956 -0.166341 0.200116 7.643628 -2.740681 7.924389 0.000000 0.000000 0.000000 -2.712320 0.575769 0.082299 1.280318 -13.511005 -1.881052 0.000000 0.000000 0.000000 20.463067 -1.020423 -70.982468 -179.999991 -42.514898 -179.999991 0.000000 0.000000 0.000000 -2.712320 0.575769 0.082299 0.515698 6.970291 0.064802 0.000000 0.000000 0.000000 15.871046 6.874132 66.875263 -179.999978 46.906276 179.999978 0.000000 0.000000 0.000000 
-1.657391 12.800579 9.562340 0.000000 0.000000 0.000000 -87.566720 -3.795122 -1.790048 -22.277181 15.096251 -8.103663 21.632922 -5.020867 -8.845378 2.284801 7.407302 8.215105 -0.283588 0.000001 0.000000 0.000000 0.000000 0.000000 -87.566720 -3.795122 -1.790048 -5.632818 -10.455723 1.419880 5.728519 -6.508433 7.319626 9.680472 -5.213818 26.008850 -1.639694 -0.000013 -0.000001 0.000000 0.000000 0.000000 -87.566720 -3.795122 -1.790048 0.607440 1.794844 -0.273631 -2.717579 0.553202 0.064004 0.000000 0.000000 0.000000 0.000000 0.000000 0.000000 -2.715128 0.575667 0.079816 3.962988 -0.169444 0.201217 7.634352 -2.769837 7.948580 0.000000 0.000000 0.000000 -2.715128 0.575667 0.079816 1.280979 -13.511722 -1.874324 0.000000 0.000000 0.000000 20.456953 -1.026677 -70.978800 -179.999978 -42.522258 -179.999991 0.000000 0.000000 0.000000 -2.715128 0.575667 0.079816 0.516553 6.974773 0.064837 0.000000 0.000000 0.000000 15.862892 6.852989 66.901901 -179.999964 46.899863 179.999950 0.000000 0.000000 0.000000 
-1.658781 12.798832 9.564728 0.000000 0.000000 0.000000 -87.563449 -3.787676 -1.790692 -22.285007 15.098277 -8.102813 21.639137 -5.021356 -8.845206 2.288939 7.409786 8.218481 -0.272534 -0.000003 -0.000000 0.000000 0.000000 0.000000 -87.563449 -3.787676 -1.790692 -5.638063 -10.460554 1.420955 5.728983 -6.500723 7.322337 9.679795 -5.219971 25.998895 -1.632174 0.000000 -0.000005 0.000000 0.000000 0.000000 -87.563449 -3.787676 -1.790692 0.601390 1.785546 -0.265657 -2.720158 0.550011 0.062057 0.000000 0.000000 0.000000 0.000000 0.000000 0.000000 -2.717717 0.572448 0.077791 3.965422 -0.170815 0.204288 7.633272 -2.783084 7.971752 0.000000 0.000000 0.000000 -2.717717 0.572448 0.077791 1.281615 -13.501141 -1.858550 0.000000 0.000000 0.000000 20.465251 -1.034975 -70.987993 180.000005 -42.534078 180.000005 0.000000 0.000000 0.000000 -2.717717 0.572448 0.077791 0.517620 6.987889 0.064818 0.000000 0.000000 0.000000 15.855741 6.841806 66.926080 -179.999991 46.897441 -179.999991 0.000000 0.000000 0.000000 
-1.660638 12.797131 9.565216 0.000000 0.000000 0.000000 -87.560983 -3.782494 -1.790956 -22.290336 15.099619 -8.102204 21.642043 -5.021721 -8.844169 2.291388 7.413792 8.223152 -0.263359 0.000004 -0.000001 0.000000 0.000000 0.000000 -87.560983 -3.782494 -1.790956 -5.641802 -10.465232 1.421815 5.728380 -6.495489 7.323488 9.680244 -5.225964 25.990150 -1.624482 -0.000000 0.000001 0.000000 0.000000 0.000000 -87.560983 -3.782494 -1.790956 0.599749 1.771604 -0.263940 -2.722020 0.546035 0.060520 0.000000 0.000000 0.000000 0.000000 0.000000 0.000000 -2.719600 0.568491 0.076138 3.966113 -0.170213 0.207897 7.633109 -2.775944 7.985333 0.000000 0.000000 0.000000 -2.719600 0.568491 0.076138 1.283078 -13.489750 -1.832716 0.000000 0.000000 0.000000 20.479685 -1.043230 -71.011803 -179.999991 -42.550627 -179.999978 0.000000 0.000000 0.000000 -2.719600 0.568491 0.076138 0.518179 7.006940 0.064739 0.000000 0.000000 0.000000 15.855799 6.837062 66.946939 179.999964 46.900300 -179.999964 0.000000 0.000000 0.000000 
